<svg width="322" height="322" fill="none" xmlns="http://www.w3.org/2000/svg"><path fill-rule="evenodd" clip-rule="evenodd" d="M263.827 36.133c-41.913.66-214.598 1.02-257.791.47-2.565-.032-2.76-4.403-.105-4.403 44.525.055 198.442-.794 257.813.483 2.857.058 2.081 3.418.083 3.45Zm-51.431 125.535a29.586 29.586 0 0 1-9.101 2.307 60.158 60.158 0 0 1-.119 11.074.863.863 0 0 1-.873.683.861.861 0 0 1-.821-.744c-.301-2.517.402-5.242-.105-10.889-3.766.102-5.53-1.066-8.839-1.515a60.45 60.45 0 0 1-23.23-8.243 1.007 1.007 0 0 1-.195-1.405 94.55 94.55 0 0 0 16.52-29.932c.43-1.232 1.855-2.887 1.861-.766.018 5.435-.616 10.867-.616 16.311 0 9.879.262 20.447 9.887 22.929 5.902 1.518 11.395-.407 15.048-1.383.868-.24 1.512 1.124.583 1.573Z" fill="#191919"/><path fill-rule="evenodd" clip-rule="evenodd" d="M198.463 140.53c-.844 1.635 2.032 1.441 3.756 1.524a.922.922 0 0 1 .677 1.456.93.93 0 0 1-.524.36 9.054 9.054 0 0 1-3.415-.194c-1.993-.413-3.514-1.148-2.429-3.381a38.975 38.975 0 0 1 2.386-4.374.833.833 0 0 1 1.494.702 28.84 28.84 0 0 1-1.945 3.907Zm10.924-6.293c.019 1.034.097 2.6-1.427 2.64-1.226.034-1.571-1.051-1.564-2.502.006-2.613 2.928-3.34 2.991-.138Zm-14.363-.066c-.026.989-.446 1.921-1.587 1.874-.953-.039-1.296-1.327-1.269-2.175.04-1.253.435-1.892 1.227-2.066 1.215-.267 1.663 1.127 1.629 2.367Zm-1.103-7.374a3.439 3.439 0 0 0-3.287 1.549c-.883 1.304-1.826.233-1.491-.539a4.829 4.829 0 0 1 5.023-2.779.89.89 0 0 1 .735 1.003.895.895 0 0 1-.98.766Zm13.115-.222a.845.845 0 0 1-.716-1.29.851.851 0 0 1 .459-.362 5.206 5.206 0 0 1 5.982 3.31c.266.923-.966 1.68-1.432.644a4.065 4.065 0 0 0-4.293-2.302Zm-7.67 22.616a7.123 7.123 0 0 0 8.401 3.978 7.033 7.033 0 0 0 4.669-8.391c-.196-.805-.917-1.085-1.784-.403-3.624 2.856-6.306 3.302-10.589 3.373-.695.011-1.102.634-.697 1.443ZM82.252 180.198c.383.726-.69 1.505-1.288.966-3.467-3.138-9.813-7.567-11.604-11.753-2.415-5.635-1.096-12.692-5.874-17.251a.885.885 0 0 1-.124-1.212.882.882 0 0 1 1.204-.181c5.28 3.714 4.28 10.986 6.725 16.261 2.48 5.34 8.243 8.032 10.96 13.17Zm-35.319-8.224a30.42 30.42 0 0 1-13.411-6.35c-1.245-1.096.246-1.98 1.154-1.367a31.865 31.865 0 0 0 12.922 5.369 39.79 39.79 0 0 0 13.663-.351c1.109-.148 1.085 1.475.322 1.932-3.472 2.085-10.754 1.625-14.65.767Zm-20.471-2.51c-.69-.755.47-1.758 1.227-1.211a47.125 47.125 0 0 0 17.423 8.372c4.94 1.127 3.57 3.439-.864 2.525a33.161 33.161 0 0 1-17.786-9.686Zm19.191 17.642c-5.868-.34-13.996-3.044-18.4-6.905a.878.878 0 0 1 .957-1.449c6.696 3.281 10.267 4.947 17.75 5.876 4.344.541 4.217 2.741-.307 2.478Zm25.937 7.512c1.18.805-.16 2.787-1.363 2.076-6.347-3.737-13.574-1.449-20.468-1.461a31.796 31.796 0 0 1-18.81-5.768c-.794-.594.08-1.782.92-1.398a42.174 42.174 0 0 0 20.351 4.508c6.516-.394 13.578-1.901 19.37 2.043Z" fill="#191919"/><path fill-rule="evenodd" clip-rule="evenodd" d="M315.84 289.815c-64.44.784-247.917-.831-287.108-1.289-2.524-.028-4.527-2.878-.072-2.898 50.393-.259 212.135-.198 287.087.493 2.951.019 2.959 3.658.093 3.694ZM191.669 173.328c-14.168 2.254-41.306 17.402-56.084 36.946 14.007-2.12 55.319-2.483 67.191-1.09a117.51 117.51 0 0 0-14.78-15.021c2.061-2.362 4-4.199 5.695-5.816-3.392-2.093-8.969-5.432-11.431-6.581a52.987 52.987 0 0 1 9.409-8.438Zm30.978 15.746a26.982 26.982 0 0 1 4.601 6.118c-4.967 2.846-14.599 8.177-20.413 14.354 5.551.728 9.177 3.422 11.109 11.592.831 3.505 1.977 9.129 3.114 15.442a192.683 192.683 0 0 1 31.965-4.226 58.415 58.415 0 0 0-7.501-13.557c-.664-.877.566-1.991 1.299-1.139a45.043 45.043 0 0 1 8.515 14.599 98.962 98.962 0 0 1 14.457.204c1.094.124 1.107 1.762-.026 1.734a192.3 192.3 0 0 0-48.323 4.554c1.618 9.228 3.141 19.54 3.62 26.761 24.955-.243 65.44 12.088 71.714-2.787 14.052-33.312-28.626-85.89-58.992-90.493a31.454 31.454 0 0 1 5.269 11.872c-3.326 1.154-16.045 4.183-20.408 4.972Zm-18.681 9.45c-5.104-12.736-4.965-19.516-6.421-25.76a.85.85 0 0 0-1.688.176c-.052 7.536 3.788 20.089 6.906 27.307a1.278 1.278 0 0 0 2.047.241c10.099-14.024 15.145-19.091 26.726-28.086a.854.854 0 0 0-.932-1.428 90.332 90.332 0 0 0-26.638 27.55Zm-82.112 13.204c-9.933-6.057-26.772-20.957-33.676-30.384a140.925 140.925 0 0 0-18.413 23.237c12.567 18.534 32.47 38.529 44.943 44.338-1.449-6.179-1.818-23.26-1.449-28.711.368-5.452 4.477-7.632 8.595-8.48Zm-56.921-.282c3.081-.129 1.497-2.289.183-2.315-17.548-.345-36.357-.773-49.587-.567 1.022-76.454.41-124.694.829-167.773.01-1.141-1.7-.966-1.752.12-1.671 35.023-.644 129.337-1.932 167.392-.045 1.304.045 2.137 2.866 2.262 7.9.355 15.599.369 23.544.506 7.302.127 18.773.671 25.849.375Zm192.263-75.884c.774-15.697.533-31.603.604-47.334.042-9.3.463-34.267.359-46.52-.018-2.123-2.206-.914-2.229.16-.423 20.806-1.519 72.758-.724 93.717.068 1.764 1.911 1.738 1.99-.023ZM40.968 87.584c0-5.104.043-10.204 0-15.308 22.988-.132 45.99-.262 68.974-.678.019 4.466 0 8.933 0 13.399-21.955.562-44.407 1.39-66.428 1.784-1.419.025-1.189 2.144.183 2.162 22.236.269 45.154-1.15 67.459-1.728A1.146 1.146 0 0 0 112.183 86c0-5.215-.018-10.431.018-15.646a1.159 1.159 0 0 0-1.227-1.034c-23.749.015-47.514.338-71.263.655a1.18 1.18 0 0 0-1.056 1.251c.131 5.507.412 11 .602 16.503.027 1.119 1.71.961 1.711-.145Z" fill="#38A1FF"/><path fill-rule="evenodd" clip-rule="evenodd" d="M39.629 124.384c24.008-.937 48.726-1.047 72.588-2.691a1.17 1.17 0 0 0 .922-.412 1.177 1.177 0 0 0 .263-.975c-.422-3.404-.845-6.807-1.288-10.208-.185-1.412-2.304-.929-2.149.457.322 2.955.679 5.908 1.03 8.855-23.31.984-46.825 1.649-70.035 2.393 0-4.616-.024-9.238.106-13.846 23.466-.243 46.53-.623 70.253-.43a.879.879 0 0 0 .895-.838.884.884 0 0 0-.807-.923c-23.815-1.097-47.73-.614-71.645-.565a1.407 1.407 0 0 0-1.481 1.339c.198 5.495.124 11.009.143 16.511a1.288 1.288 0 0 0 1.205 1.333Zm70.613 32.242c-11.528.153-26.194-.076-38.019.483-.99.046-.945 2.065.026 2.081 10.647.182 26.76-.344 39.068-.085 1.36.029 1.423-1.288 1.264-2.267a46.962 46.962 0 0 1-.127-14.522 1.189 1.189 0 0 0-.683-1.301 1.178 1.178 0 0 0-.514-.101c-23.422.553-46.85 1.42-70.271 1.795a1.217 1.217 0 0 0-1.137 1.254c-.042 5.068-.032 10.143-.067 15.205a1.287 1.287 0 0 0 1.326 1.202c6.762-.247 12.086-.21 18.85-.627 1.127-.07 1.032-2.103-.085-2.106-6.34-.018-11.23.051-17.569.183-.024-4.252-.029-8.504-.058-12.756 22.576-.805 45.169-1.159 67.749-1.79a48.947 48.947 0 0 0 .247 13.352Zm54.731 15.011c1.066.253 1.356-1.458.322-1.761a46.001 46.001 0 0 1-26.404-21.775c-13.09-23.381-4.991-54.02 16.278-69.564 18.837-13.767 59.302-13.487 72.35 9.016.789 1.36 2.838.617 2.181-.83-10.201-22.484-51.603-25.704-71.907-13.307-23.907 14.603-34.995 46.184-23.152 72.068 5.957 13.022 17.021 23.001 30.332 26.153Zm92.035 4.713c.408-3.471.045-12.719.059-18.13 0-1.942-1.822-1.229-1.888-.416a154.499 154.499 0 0 0-.049 18.549c.073.923 1.771.908 1.878-.003Z" fill="#38A1FF"/><path fill-rule="evenodd" clip-rule="evenodd" d="M262.781 271.572c-9.61-1.127-29.539-2.362-42.48-2.576 0-7.431-7.106-49.91-11.629-53.464-4.331-3.403-86.492-4.038-89.885 2.415-4.459 8.495 2.911 61.119 6.981 62.509 6.622 2.254 132.486 1.878 137.977 1.449 2.871-.218 3.28-9.839-.964-10.333ZM144.15 220.601c-4.772.499-9.338 1.159-14.097 1.856-4.12.604-4.412 1.467-4.859 5.421-.568 4.695-.84 9.421-.815 14.15 0 1.006-1.464 1.27-1.597.211a67.906 67.906 0 0 1 .122-16.325c.461-3.555 1.771-5.152 5.313-5.875a66.146 66.146 0 0 1 15.921-1.25.92.92 0 0 1 .784.901.915.915 0 0 1-.772.911Zm21.036 35.949c-3.405.644-7.094-1.198-8.422-6.391-1.154-4.508.966-7.91 4.711-8.868 8.968-2.293 12.244 13.628 3.711 15.259Zm93.09-107.487c-15.311-15.171-6.184-36.44-15.976-46.733a11.492 11.492 0 0 0-14.762-1.771c-7.543-12.267-22.928-15.235-36.027-11.154-14.276 4.448-19.391 21.877-7.931 27.486 6.006 2.94 27.088 3.189 33.68 1.913a29.435 29.435 0 0 0 5.894 15.019c.341.411.818.979 1.385.483a5.95 5.95 0 0 1 4.549-1.505 5.95 5.95 0 0 1 4.187 2.333 6.222 6.222 0 0 1 .951 4.667 6.221 6.221 0 0 1-2.637 3.967c-1.969 1.303-3.373 1.113-5.579 1.002-.691-.034-.819.544-.866 1.072-.681 7.67-1.436 16.422-.266 24.05a.821.821 0 0 0 1.631-.187c.016-2.067-.061-4.134-.129-6.203 10.779 1.206 24.427-5.099 31.928-12.307 1.189-1.128.338-1.764-.032-2.132Zm-57.992-52.48a16.26 16.26 0 0 0-7.578 1.722c-2.61 1.253-7.041 4.366-6.743 7.631.089.979-1.319 1.578-1.684.569-1.763-4.866 3.144-8.667 6.416-10.452a19.962 19.962 0 0 1 9.499-2.44c4.247.005 2.494 3.072.09 2.97Z" fill="#191919"/></svg>